<?xml version="1.0" encoding="UTF-8"?>
<svg version="1.1" xmlns="http://www.w3.org/2000/svg" width="561" height="545">
<path d="M0 0 C0.99 0 1.98 0 3 0 C7.68932425 16.78179443 10.44262025 33.7922579 13 51 C13.15742676 52.04043457 13.31485352 53.08086914 13.47705078 54.15283203 C15.61599379 68.38753394 17.02329871 82.64004935 18 97 C18.05929687 97.84836426 18.11859375 98.69672852 18.1796875 99.57080078 C20.75087893 138.19223875 19.70443142 177.71216404 14 216 C13.80698622 217.34610108 13.61464093 218.69229814 13.42285156 220.03857422 C3.80682471 287.08969356 -18.26634803 352.9338525 -57 409 C-57.57234375 409.83660156 -58.1446875 410.67320312 -58.734375 411.53515625 C-62.57117106 417.08795054 -66.57836791 422.50208969 -70.65234375 427.8828125 C-72.28770024 430.05421763 -73.9045794 432.23224346 -75.50390625 434.4296875 C-75.91141113 434.98543457 -76.31891602 435.54118164 -76.73876953 436.11376953 C-77.88039414 437.67205224 -79.01651662 439.23436149 -80.15234375 440.796875 C-80.76207031 441.52390625 -81.37179687 442.2509375 -82 443 C-82.66 443 -83.32 443 -84 443 C-84.22945313 443.54785156 -84.45890625 444.09570312 -84.6953125 444.66015625 C-86.37604205 447.67439878 -88.51953318 449.91777956 -90.875 452.4375 C-94.06718487 455.86314316 -97.09512951 459.32839331 -100 463 C-103.49462269 466.6887684 -107.25158085 469.98430838 -111.1328125 473.25390625 C-113.03144271 475.02940354 -114.50545292 476.8788571 -116 479 C-123.22279221 478.31551962 -130.07156402 476.60982281 -137.09375 474.82421875 C-138.38701008 474.49900582 -139.68037835 474.17422288 -140.97384644 473.84983826 C-143.72323104 473.15939942 -146.47185786 472.46604917 -149.21990967 471.77032471 C-153.52771561 470.67976258 -157.8372036 469.59595762 -162.14697266 468.51318359 C-167.97134731 467.04926067 -173.79505834 465.58273168 -179.61816406 464.11376953 C-190.5137551 461.36532169 -201.41140447 458.62511924 -212.3112793 455.89370728 C-215.30769204 455.141888 -218.3032939 454.3869026 -221.29882812 453.6315918 C-223.12366565 453.17353682 -224.9485336 452.71560299 -226.7734375 452.2578125 C-227.56861786 452.05643173 -228.36379822 451.85505096 -229.18307495 451.64756775 C-233.04587244 450.68170115 -236.90678231 449.80348489 -240.81542969 449.04272461 C-246.65013963 447.90019505 -252.40902443 446.48583572 -258.1796875 445.05859375 C-259.91000465 444.63329376 -259.91000465 444.63329376 -261.67527771 444.19940186 C-265.40906588 443.2809749 -269.1420549 442.35934707 -272.875 441.4375 C-274.81606476 440.95932427 -276.7571297 440.48114926 -278.69823933 440.00315571 C-298.81088807 435.05006574 -318.91077883 430.04715806 -339 425 C-344.97871378 423.49819086 -350.95782655 421.9979837 -356.9375 420.5 C-358.04520752 420.22237823 -358.04520752 420.22237823 -359.17529297 419.93914795 C-371.65999805 416.81216516 -384.16382256 413.76760936 -396.67327881 410.74139404 C-408.74113858 407.81965509 -420.76810185 404.76694325 -432.77050781 401.5859375 C-437.50154323 400.3425642 -442.2490482 399.16474947 -447 398 C-445.60809755 394.91450197 -443.95565889 392.62953021 -441.6875 390.125 C-439.44682471 387.63224873 -437.27512889 385.12196247 -435.1875 382.5 C-434.465625 381.675 -433.74375 380.85 -433 380 C-432.34 380 -431.68 380 -431 380 C-430.6596875 379.195625 -430.6596875 379.195625 -430.3125 378.375 C-428.0831022 374.34085161 -425.06713312 371.06521727 -421.82421875 367.828125 C-418.18394118 364.18281247 -414.65536901 360.4389295 -411.125 356.6875 C-410.44308594 355.96626953 -409.76117188 355.24503906 -409.05859375 354.50195312 C-405.15023053 350.35164361 -401.3357861 346.13863207 -397.59912109 341.83325195 C-395.35857973 339.26466796 -393.05900591 336.75732543 -390.75 334.25 C-389.7968498 333.21356484 -388.84372555 332.17710582 -387.890625 331.140625 C-387.17229492 330.36041992 -387.17229492 330.36041992 -386.43945312 329.56445312 C-384.12257673 327.04638258 -381.81152713 324.52298003 -379.5 322 C-378.58205334 320.99867766 -377.66408457 319.9973756 -376.74609375 318.99609375 C-374.92516169 317.00968118 -373.10490144 315.02265613 -371.28515625 313.03515625 C-366.53392413 307.84702922 -361.77385627 302.66732286 -357 297.5 C-349.01757855 288.85795948 -341.05151276 280.20258232 -333.1953125 271.4453125 C-331.67280564 269.74942408 -330.14649445 268.05694633 -328.6171875 266.3671875 C-323.84510238 261.10403569 -323.84510238 261.10403569 -319.25 255.6875 C-316.96201258 252.95462614 -314.52067292 250.52067292 -312 248 C-309.52355524 245.41277067 -307.07372471 242.80094816 -304.625 240.1875 C-303.99078125 239.51396484 -303.3565625 238.84042969 -302.703125 238.14648438 C-298.93409119 234.12746363 -295.26146682 230.04123578 -291.64794922 225.88208008 C-289.23273681 223.12372861 -286.74663973 220.43451753 -284.25 217.75 C-283.20424799 216.62125964 -282.15867914 215.49234958 -281.11328125 214.36328125 C-280.59330566 213.80205566 -280.07333008 213.24083008 -279.53759766 212.66259766 C-277.16291926 210.09486824 -274.79951855 207.5168718 -272.4375 204.9375 C-271.76315918 204.20128418 -271.76315918 204.20128418 -271.07519531 203.45019531 C-270.16969207 202.46148718 -269.26425566 201.47271783 -268.35888672 200.48388672 C-266.07357504 197.98835593 -263.7867042 195.49425473 -261.5 193 C-260.58332596 192.00000675 -259.6666593 191.00000676 -258.75 190 C-253.25 184 -253.25 184 -251.87451172 182.49951172 C-250.95941367 181.50119339 -250.04437445 180.50282114 -249.12939453 179.50439453 C-246.81421148 176.9782158 -244.4979599 174.45303168 -242.1796875 171.9296875 C-237.15530121 166.45884412 -232.15217402 160.97013312 -227.19140625 155.44140625 C-225.68133672 153.75906498 -224.16812565 152.07954003 -222.65234375 150.40234375 C-221.88019531 149.54769531 -221.10804688 148.69304687 -220.3125 147.8125 C-219.57515625 146.99652344 -218.8378125 146.18054688 -218.078125 145.33984375 C-216.19414448 143.21859501 -214.37290788 141.05891436 -212.5625 138.875 C-211.716875 137.92625 -210.87125 136.9775 -210 136 C-209.34 136 -208.68 136 -208 136 C-207.7525 135.443125 -207.505 134.88625 -207.25 134.3125 C-204.98512264 130.12247688 -201.88565376 126.87462943 -198.52758789 123.54125977 C-195.33135091 120.31641654 -192.23647391 116.99380452 -189.125 113.6875 C-188.44308594 112.96626953 -187.76117188 112.24503906 -187.05859375 111.50195312 C-183.18285194 107.38628444 -179.40686524 103.20524319 -175.70166016 98.93579102 C-172.91440739 95.76504106 -170.01905484 92.69800146 -167.125 89.625 C-157.48058158 79.78119176 -157.48058158 79.78119176 -149 69 C-148.34 69 -147.68 69 -147 69 C-146.7525 68.38125 -146.505 67.7625 -146.25 67.125 C-144.77952822 64.62519797 -143.58596924 64.16683978 -141 63 C-139.41249474 70.31751786 -138.30894132 77.62769329 -137.4375 85.0625 C-137.30746582 86.17101318 -137.17743164 87.27952637 -137.04345703 88.42163086 C-134.82393092 107.87570657 -134.55663065 127.4427554 -134 147 C-125.70027713 138.04544895 -125.70027713 138.04544895 -117.5 129 C-113.06629286 124.05409564 -108.5605658 119.17713346 -104.05078125 114.30078125 C-91.01135134 100.63355251 -91.01135134 100.63355251 -78.87109375 86.21484375 C-78.25363281 85.48394531 -77.63617188 84.75304687 -77 84 C-76.34 84 -75.68 84 -75 84 C-74.7525 83.443125 -74.505 82.88625 -74.25 82.3125 C-71.28749766 76.83187067 -66.78638044 72.71956077 -62.37109375 68.41015625 C-58.77316768 64.86052449 -55.38765237 61.20374833 -52.08984375 57.375 C-48.91422529 53.76607285 -45.63251871 50.25610524 -42.35083008 46.74365234 C-39.8876996 44.09529056 -37.51871323 41.42561799 -35.2578125 38.6015625 C-34.51273437 37.74304687 -33.76765625 36.88453125 -33 36 C-32.34 36 -31.68 36 -31 36 C-30.59599976 35.11272217 -30.59599976 35.11272217 -30.18383789 34.20751953 C-29.00132468 32.00247015 -27.77937778 30.48358441 -26.05859375 28.6796875 C-25.47916016 28.06673828 -24.89972656 27.45378906 -24.30273438 26.82226562 C-23.68720703 26.17966797 -23.07167969 25.53707031 -22.4375 24.875 C-21.1647144 23.52926047 -19.89257935 22.18290536 -18.62109375 20.8359375 C-18.00089355 20.18077148 -17.38069336 19.52560547 -16.74169922 18.85058594 C-11.86690746 13.67103428 -7.124446 8.38407779 -2.625 2.875 C-1.75875 1.92625 -0.8925 0.9775 0 0 Z " fill="#FCB840" transform="translate(542,1)"/>
<path d="M0 0 C0.33 0 0.66 0 1 0 C1.30625932 14.29015718 0.45276191 28.18309144 -1.1875 42.375 C-1.35747498 43.88018188 -1.35747498 43.88018188 -1.53088379 45.41577148 C-11.82916606 136.36772228 -42.9058195 224.51743138 -100 297 C-108.92604502 295.69691837 -117.54176116 293.6934552 -126.25390625 291.375 C-129.009926 290.65114426 -131.76698083 289.93126017 -134.52392578 289.2109375 C-135.22561732 289.02706482 -135.92730886 288.84319214 -136.65026379 288.65374756 C-144.05443027 286.71625864 -151.47655749 284.85259438 -158.90234375 283 C-160.23483423 282.66716082 -161.56732324 282.33431574 -162.89981079 282.00146484 C-166.24340996 281.16666945 -169.587333 280.33317826 -172.93133545 279.5 C-176.27149538 278.66752593 -179.61132235 277.83371836 -182.95117188 277 C-187.59333423 275.84129965 -192.23559881 274.68301058 -196.87800026 273.52526855 C-206.25415551 271.1869242 -215.62918299 268.84407812 -225.00390625 266.5 C-225.71535231 266.32210938 -226.42679836 266.14421875 -227.15980339 265.9609375 C-231.10656149 264.97406188 -235.05329293 263.9870797 -239 263 C-238.04515603 261.71234057 -237.08830883 260.42616644 -236.13061523 259.140625 C-235.59798569 258.42422852 -235.06535614 257.70783203 -234.5165863 256.96972656 C-232.84354198 254.79679395 -231.05288753 252.88518734 -229.0625 251 C-226.55308612 248.55649943 -224.15481446 246.09632644 -221.875 243.4375 C-218.3998616 239.39645604 -214.77002059 235.51202763 -211.125 231.625 C-206.44924394 226.63650685 -201.82289045 221.6130108 -197.265625 216.515625 C-194.57620734 213.52944401 -191.85365044 210.57530188 -189.125 207.625 C-188.61783447 207.07658447 -188.11066895 206.52816895 -187.58813477 205.96313477 C-187.08080811 205.41455811 -186.57348145 204.86598145 -186.05078125 204.30078125 C-179.08529505 196.76867146 -172.16477158 189.19788833 -165.3125 181.5625 C-162.25640539 178.17601679 -159.17014388 174.81755186 -156.08374023 171.45874023 C-153.22397796 168.34366875 -150.38484641 165.21148325 -147.5625 162.0625 C-143.10602289 157.09761909 -138.58051938 152.19865048 -134.05078125 147.30078125 C-127.84683239 140.5921578 -121.66313207 133.8653631 -115.5625 127.0625 C-111.10602289 122.09761909 -106.58051938 117.19865048 -102.05078125 112.30078125 C-95.84683239 105.5921578 -89.66313207 98.8653631 -83.5625 92.0625 C-79.10602289 87.09761909 -74.58051938 82.19865048 -70.05078125 77.30078125 C-63.08278622 69.76595854 -56.16080792 62.19157608 -49.3046875 54.5546875 C-45.36614481 50.18891306 -41.38517339 45.86205811 -37.40722656 41.53222656 C-35.10291448 39.02322888 -32.80158909 36.51149532 -30.5 34 C-29.58334808 32.99998648 -28.6666814 31.99998649 -27.75 31 C-27.29625 30.505 -26.8425 30.01 -26.375 29.5 C-22.25 25 -22.25 25 -20.87304688 23.49804688 C-19.96265442 22.50477374 -19.05249552 21.51128647 -18.14257812 20.51757812 C-15.7568538 17.9127916 -13.36637004 15.31259469 -10.96875 12.71875 C-10.47181641 12.17992187 -9.97488281 11.64109375 -9.46289062 11.0859375 C-8.08063957 9.58742234 -6.69662405 8.09053531 -5.3125 6.59375 C-3.02208104 4.10018783 -3.02208104 4.10018783 -1.25 1.65625 C-0.8375 1.1096875 -0.425 0.563125 0 0 Z " fill="#F88100" transform="translate(405,152)"/>
<path d="M0 0 C0.66 0 1.32 0 2 0 C3.58765512 7.31820865 4.68484522 14.62797457 5.5625 22.0625 C5.68818359 23.06732422 5.81386719 24.07214844 5.94335938 25.10742188 C6.9260723 33.31384659 7.46532739 41.52469856 7.88296509 49.77511597 C7.99959718 51.99234222 8.1336072 54.20799908 8.27026367 56.42407227 C10.04045519 86.55090775 10.04045519 86.55090775 4.06176758 93.66650391 C1.51936895 96.04725597 -1.13469675 98.01353501 -4 100 C-5.85741853 101.92043541 -5.85741853 101.92043541 -7.375 103.875 C-11.36639281 108.49249364 -15.56820205 112.91369125 -19.74121094 117.36621094 C-23.78965672 121.69014904 -27.77936014 126.05980447 -31.7265625 130.4765625 C-34.45837593 133.50878154 -37.22714409 136.50535027 -40 139.5 C-44.28232617 144.12614788 -48.52207952 148.78678779 -52.73046875 153.48046875 C-56.65464446 157.83691166 -60.62602828 162.15013444 -64.59277344 166.46777344 C-66.89708547 168.97677106 -69.19844821 171.48847057 -71.5 174 C-74.27193176 177.02482361 -77.04454708 180.04900597 -79.8203125 183.0703125 C-84.04766751 187.67349765 -88.26526083 192.28413776 -92.4375 196.9375 C-96.89397711 201.90238091 -101.41948062 206.80134952 -105.94921875 211.69921875 C-112.15316761 218.4078422 -118.33686793 225.1346369 -124.4375 231.9375 C-128.89397711 236.90238091 -133.41948062 241.80134952 -137.94921875 246.69921875 C-144.91470495 254.23132854 -151.83522842 261.80211167 -158.6875 269.4375 C-161.74359461 272.82398321 -164.82985612 276.18244814 -167.91625977 279.54125977 C-170.77602204 282.65633125 -173.61515359 285.78851675 -176.4375 288.9375 C-180.89643915 293.90512383 -185.42438331 298.80683252 -189.95703125 303.70703125 C-192.83394762 306.81782841 -195.70049617 309.93798345 -198.5625 313.0625 C-199.01222168 313.55347168 -199.46194336 314.04444336 -199.92529297 314.55029297 C-200.83062602 315.53884515 -201.73589963 316.52745177 -202.64111328 317.51611328 C-204.46802715 319.51107959 -206.29595242 321.50511749 -208.12402344 323.49902344 C-209.03761167 324.4956062 -209.95102461 325.4923497 -210.86425781 326.48925781 C-213.21461664 329.0546602 -215.56783046 331.61735374 -217.92578125 334.17578125 C-222.71152866 339.37324901 -227.45181268 344.59134481 -232 350 C-224.24790377 352.33214324 -216.47549854 354.39913181 -208.59375 356.234375 C-196.08346434 359.18163773 -183.6369554 362.36974468 -171.1875 365.5625 C-166.78532805 366.68947402 -162.38292737 367.81555266 -157.98046875 368.94140625 C-156.92503876 369.21141449 -155.86960876 369.48142273 -154.78219604 369.75961304 C-146.52866563 371.86934892 -138.26701873 373.94379996 -130 376 C-126.85396215 376.78564072 -123.70823941 377.57254028 -120.5625 378.359375 C-118.97396371 378.75653193 -117.38542206 379.1536674 -115.796875 379.55078125 C-115.00990234 379.74752441 -114.22292969 379.94426758 -113.41210938 380.14697266 C-111.77539062 380.55615234 -110.13867188 380.96533203 -108.50195312 381.37451172 C-107.68146484 381.57963379 -106.86097656 381.78475586 -106.015625 381.99609375 C-105.22470459 382.19382385 -104.43378418 382.39155396 -103.61889648 382.59527588 C-102.85778564 382.78555359 -102.0966748 382.9758313 -101.3125 383.171875 C-100.57523682 383.3561908 -99.83797363 383.54050659 -99.07836914 383.73040771 C-97.38557943 384.15360514 -95.69278971 384.57680257 -94 385 C-94 385.66 -94 386.32 -94 387 C-107.69778591 384.04890307 -121.28886338 380.73773459 -134.875 377.3125 C-137.00286754 376.77799145 -139.13079817 376.24373402 -141.25878906 375.7097168 C-145.51687578 374.64089879 -149.77467512 373.57094819 -154.03222656 372.5 C-161.54505285 370.61077294 -169.06054832 368.73227771 -176.57644653 366.85531616 C-180.19299397 365.95213139 -183.80941102 365.04842526 -187.42578125 364.14453125 C-188.13099411 363.96827713 -188.83620697 363.79202301 -189.56278992 363.61042786 C-193.93236055 362.51798055 -198.30127106 361.42292957 -202.66975403 360.32614136 C-206.42545969 359.38325758 -210.18141565 358.44137401 -213.9375 357.5 C-214.67515594 357.3151001 -215.41281189 357.1302002 -216.17282104 356.93969727 C-228.6583542 353.81255048 -241.16300318 350.76780758 -253.67327881 347.74139404 C-265.74113858 344.81965509 -277.76810185 341.76694325 -289.77050781 338.5859375 C-294.50154323 337.3425642 -299.2490482 336.16474947 -304 335 C-302.60809755 331.91450197 -300.95565889 329.62953021 -298.6875 327.125 C-296.44682471 324.63224873 -294.27512889 322.12196247 -292.1875 319.5 C-291.465625 318.675 -290.74375 317.85 -290 317 C-289.34 317 -288.68 317 -288 317 C-287.6596875 316.195625 -287.6596875 316.195625 -287.3125 315.375 C-285.0831022 311.34085161 -282.06713312 308.06521727 -278.82421875 304.828125 C-275.18394118 301.18281247 -271.65536901 297.4389295 -268.125 293.6875 C-267.44308594 292.96626953 -266.76117188 292.24503906 -266.05859375 291.50195312 C-262.15023053 287.35164361 -258.3357861 283.13863207 -254.59912109 278.83325195 C-252.35857973 276.26466796 -250.05900591 273.75732543 -247.75 271.25 C-246.7968498 270.21356484 -245.84372555 269.17710582 -244.890625 268.140625 C-244.17229492 267.36041992 -244.17229492 267.36041992 -243.43945312 266.56445312 C-241.12257673 264.04638258 -238.81152713 261.52298003 -236.5 259 C-235.58205334 257.99867766 -234.66408457 256.9973756 -233.74609375 255.99609375 C-231.92516169 254.00968118 -230.10490144 252.02265613 -228.28515625 250.03515625 C-223.53392413 244.84702922 -218.77385627 239.66732286 -214 234.5 C-206.01757855 225.85795948 -198.05151276 217.20258232 -190.1953125 208.4453125 C-188.67280564 206.74942408 -187.14649445 205.05694633 -185.6171875 203.3671875 C-180.84510238 198.10403569 -180.84510238 198.10403569 -176.25 192.6875 C-173.96201258 189.95462614 -171.52067292 187.52067292 -169 185 C-166.52355524 182.41277067 -164.07372471 179.80094816 -161.625 177.1875 C-160.99078125 176.51396484 -160.3565625 175.84042969 -159.703125 175.14648438 C-155.93409119 171.12746363 -152.26146682 167.04123578 -148.64794922 162.88208008 C-146.23273681 160.12372861 -143.74663973 157.43451753 -141.25 154.75 C-140.20424799 153.62125964 -139.15867914 152.49234958 -138.11328125 151.36328125 C-137.59330566 150.80205566 -137.07333008 150.24083008 -136.53759766 149.66259766 C-134.16291926 147.09486824 -131.79951855 144.5168718 -129.4375 141.9375 C-128.76315918 141.20128418 -128.76315918 141.20128418 -128.07519531 140.45019531 C-127.16969207 139.46148718 -126.26425566 138.47271783 -125.35888672 137.48388672 C-123.07357504 134.98835593 -120.7867042 132.49425473 -118.5 130 C-117.58332596 129.00000675 -116.6666593 128.00000676 -115.75 127 C-110.25 121 -110.25 121 -108.87451172 119.49951172 C-107.95941367 118.50119339 -107.04437445 117.50282114 -106.12939453 116.50439453 C-103.81421148 113.9782158 -101.4979599 111.45303168 -99.1796875 108.9296875 C-94.15530121 103.45884412 -89.15217402 97.97013312 -84.19140625 92.44140625 C-82.68133672 90.75906498 -81.16812565 89.07954003 -79.65234375 87.40234375 C-78.88019531 86.54769531 -78.10804688 85.69304687 -77.3125 84.8125 C-76.57515625 83.99652344 -75.8378125 83.18054688 -75.078125 82.33984375 C-73.19414448 80.21859501 -71.37290788 78.05891436 -69.5625 75.875 C-68.716875 74.92625 -67.87125 73.9775 -67 73 C-66.34 73 -65.68 73 -65 73 C-64.7525 72.443125 -64.505 71.88625 -64.25 71.3125 C-61.98512264 67.12247688 -58.88565376 63.87462943 -55.52758789 60.54125977 C-52.33135091 57.31641654 -49.23647391 53.99380452 -46.125 50.6875 C-45.44308594 49.96626953 -44.76117188 49.24503906 -44.05859375 48.50195312 C-40.18285194 44.38628444 -36.40686524 40.20524319 -32.70166016 35.93579102 C-29.91440739 32.76504106 -27.01905484 29.69800146 -24.125 26.625 C-14.48058158 16.78119176 -14.48058158 16.78119176 -6 6 C-5.34 6 -4.68 6 -4 6 C-3.71125 5.38125 -3.4225 4.7625 -3.125 4.125 C-2 2 -2 2 0 0 Z " fill="#FDB221" transform="translate(399,64)"/>
<path d="M0 0 C8.55564966 1.24688387 16.88626445 3.10441035 25.25390625 5.25231934 C29.196455 6.26374354 33.14346255 7.25756126 37.08984375 8.25390625 C37.94947723 8.47134491 38.80911072 8.68878357 39.6947937 8.91281128 C49.83313556 11.47238606 59.99159514 13.94946024 70.14920044 16.4312439 C91.90385649 21.74691769 113.63907155 27.13648716 135.35742188 32.59863281 C144.732685 34.9537189 154.11176945 37.28181308 163.51953125 39.50390625 C173.86693505 41.94802923 184.17684471 44.53302641 194.4864502 47.13131714 C214.54674262 52.18349219 234.63483598 57.10870955 254.75 61.9375 C276.26103763 67.10286708 297.73753785 72.39296641 319.19067383 77.79370117 C331.2007434 80.81473392 343.21942254 83.79287783 355.2578125 86.69921875 C357.74438969 87.30133058 360.23096203 87.90346243 362.7175293 88.50561523 C367.44866859 89.65080679 372.18221369 90.78529423 376.91723633 91.91430664 C379.0373674 92.42685219 381.15740846 92.93977027 383.27734375 93.453125 C384.25353668 93.6826738 385.22972961 93.9122226 386.23550415 94.14872742 C387.11805878 94.36422745 388.0006134 94.57972748 388.90991211 94.80175781 C389.68032333 94.98603333 390.45073456 95.17030884 391.24449158 95.36016846 C393 96 393 96 394 98 C393.28158936 97.96970703 392.56317871 97.93941406 391.82299805 97.90820312 C377.21164831 97.30226151 362.62451509 96.72589112 348 97 C346.93676514 97.01087646 346.93676514 97.01087646 345.85205078 97.02197266 C319.96708039 97.36710559 293.01945163 101.49443696 268 108 C266.34049316 108.43119141 266.34049316 108.43119141 264.64746094 108.87109375 C249.33619113 112.91827337 234.46903138 117.53832816 220 124 C219.13826172 124.38414062 218.27652344 124.76828125 217.38867188 125.1640625 C199.88412647 133.05702115 180.99141264 142.16269401 166.5 155 C164 157 164 157 160 157 C158.5 155.15625 158.5 155.15625 157 152.5 C153.95926189 147.42556393 150.64312224 142.70838166 147.0625 138 C146.27758179 136.96576904 146.27758179 136.96576904 145.47680664 135.91064453 C144.45000145 134.55771921 143.42291053 133.20501068 142.39550781 131.85253906 C140.5382068 129.38696872 138.7358405 126.883796 136.9375 124.375 C128.52657508 112.77312625 119.4092588 101.79914176 110 91 C109.34128906 90.23945313 108.68257813 89.47890625 108.00390625 88.6953125 C106.34560937 86.78807959 104.67571671 84.89193822 103 83 C102.31679687 82.22398437 101.63359375 81.44796875 100.9296875 80.6484375 C96.10730412 75.22115586 91.10393872 70.06497606 85.87109375 65.03125 C84 63 84 63 84 61 C83.12601563 60.61908203 83.12601563 60.61908203 82.234375 60.23046875 C79.75811967 58.86679667 78.19479374 57.35774797 76.25 55.3125 C72.33870898 51.30791213 68.25778995 47.62994635 64 44 C63.05382812 43.17628906 62.10765625 42.35257812 61.1328125 41.50390625 C48.84821748 30.87271197 35.78371771 21.57914707 22 13 C21.11699219 12.43410156 20.23398437 11.86820312 19.32421875 11.28515625 C13.17024233 7.42787916 6.76355427 4.62639736 0 2 C0 1.34 0 0.68 0 0 Z " fill="#1A1F8A" transform="translate(1,388)"/>
</svg>
