<?xml version="1.0" encoding="UTF-8"?>
<svg version="1.1" xmlns="http://www.w3.org/2000/svg" width="570" height="320">
<path d="M0 0 C188.1 0 376.2 0 570 0 C570 105.6 570 211.2 570 320 C381.9 320 193.8 320 0 320 C0 214.4 0 108.8 0 0 Z " fill="#FEFEFE" transform="translate(0,0)"/>
<path d="M0 0 C26.56806283 0 26.56806283 0 33.62109375 6.4921875 C37.87517041 11.14395405 39.44742633 15.60597316 39.24609375 21.8828125 C38.63681295 27.1245616 37.11374181 31.37759884 33.0625 34.875 C25.56629109 40.07645108 20.37924891 40 11 40 C11 47.92 11 55.84 11 64 C7.37 64 3.74 64 0 64 C0 42.88 0 21.76 0 0 Z " fill="#EA2D2D" transform="translate(387,133)"/>
<path d="M0 0 C-0.75 7.625 -0.75 7.625 -3 11 C-3.886875 10.525625 -4.77375 10.05125 -5.6875 9.5625 C-11.25341601 6.93706792 -16.88716469 6.35481702 -23 7 C-24.98 7.99 -24.98 7.99 -27 9 C-27 11.97 -27 14.94 -27 18 C-24.15569698 19.14645611 -21.30417092 20.2673328 -18.44140625 21.3671875 C-17.14838741 21.86966278 -15.85541965 22.37226953 -14.5625 22.875 C-13.91990234 23.11863281 -13.27730469 23.36226562 -12.61523438 23.61328125 C-5.94326198 26.2278816 -0.57139202 29.32683744 3.08203125 35.65234375 C4.80936445 40.06990654 4.77402154 44.36297186 4 49 C2.25 52.4375 2.25 52.4375 0 55 C-0.53625 55.721875 -1.0725 56.44375 -1.625 57.1875 C-8.47686375 62.41655392 -17.70007759 62.96747562 -26 62 C-30.42737353 60.90617831 -34.71218177 59.54914723 -39 58 C-40.06511827 53.62780122 -39.66434402 51.20981134 -38 47 C-37.34 47.268125 -36.68 47.53625 -36 47.8125 C-35.01 48.204375 -34.02 48.59625 -33 49 C-32.41863281 49.26425781 -31.83726562 49.52851563 -31.23828125 49.80078125 C-24.90443586 52.51161569 -18.65835058 53.06701892 -12 51.125 C-9.85956775 50.03932103 -9.85956775 50.03932103 -8 48 C-7.51181974 44.33864802 -7.62348467 42.57269038 -9.671875 39.45703125 C-12.24711151 36.73920614 -14.13756026 35.78823631 -17.625 34.5 C-18.68074219 34.08363281 -19.73648437 33.66726562 -20.82421875 33.23828125 C-21.87222656 32.82964844 -22.92023438 32.42101562 -24 32 C-30.2092031 29.49062551 -34.99664474 27.27948399 -38.22265625 21.171875 C-40.16638388 15.74115862 -39.67633674 10.92134179 -37.375 5.6875 C-35.26587003 1.94621645 -32.86009111 -0.03056576 -29 -2 C-19.1748623 -4.47706517 -9.47077 -3.18855583 0 0 Z " fill="#EA3030" transform="translate(370,136)"/>
<path d="M0 0 C3.63 0 7.26 0 11 0 C11.11362556 7.74611696 11.2050712 15.49176638 11.25906086 23.23849106 C11.28499271 26.83688432 11.32008219 30.43467072 11.37719727 34.03271484 C11.43211419 37.51465945 11.46154341 40.99602592 11.47438622 44.47837067 C11.48792158 46.43245033 11.52685661 48.38630212 11.56648254 50.34002686 C11.56905006 58.63674138 10.46534261 65.85109773 6 73 C1.40720464 77.15882234 -2.01059366 77.92727051 -8 79 C-8.66 76.03 -9.32 73.06 -10 70 C-8.6078125 69.690625 -8.6078125 69.690625 -7.1875 69.375 C-3.07305458 67.60014119 -2.64146424 66.09480429 -1 62 C-0.53588244 58.89651216 -0.53588244 58.89651216 -0.56762695 55.62744141 C-0.54783279 54.38660797 -0.52803864 53.14577454 -0.50764465 51.86734009 C-0.50087653 50.52874911 -0.49442947 49.19015647 -0.48828125 47.8515625 C-0.47141998 46.4700665 -0.4532678 45.08858571 -0.43388367 43.7071228 C-0.38653403 40.0871862 -0.35662801 36.46731128 -0.33044434 32.84716797 C-0.3005624 29.14668604 -0.25405849 25.44641629 -0.20898438 21.74609375 C-0.12312266 14.49750147 -0.05570187 7.24889347 0 0 Z " fill="#EA2D2D" transform="translate(306,133)"/>
<path d="M0 0 C2.075183 1.69940661 2.9265577 2.72064035 3.6171875 5.34765625 C4.79875236 17.7898923 0.5269677 27.1543172 -7.2265625 36.7578125 C-12.16603911 42.38724775 -17.45479649 47.09929182 -23.3125 51.7421875 C-30.3550016 57.65870774 -35.82860346 63.27224464 -37.44140625 72.53515625 C-37.99289944 84.04535286 -31.07071742 93.42707888 -24 102 C-24.33 102.66 -24.66 103.32 -25 104 C-26.7074998 102.71937515 -28.37373596 101.38232443 -30 100 C-30 99.34 -30 98.68 -30 98 C-30.66 98 -31.32 98 -32 98 C-34.54886219 95.5299686 -36.74794171 92.74000425 -39 90 C-39.556875 89.3296875 -40.11375 88.659375 -40.6875 87.96875 C-45.36200793 82.07887 -48.84397154 75.83829593 -48.46484375 68.05859375 C-45.47196249 54.80440533 -29.71264671 45.03407538 -19.56542969 37.21044922 C-10.98680756 30.57713536 -3.52600987 22.91462472 -1 12 C-0.49754905 8.00502236 -0.19434939 4.02102188 0 0 Z " fill="#EA3032" transform="translate(224,56)"/>
<path d="M0 0 C-0.33 0.66 -0.66 1.32 -1 2 C-4.30174761 3.06913732 -7.63862196 3.92754339 -10.99609375 4.8046875 C-14.09876634 5.70808235 -14.09876634 5.70808235 -15.41015625 8.1328125 C-15.70212891 9.05707031 -15.70212891 9.05707031 -16 10 C1.22973957 15.69264523 19.4532435 15.34745611 37.39257812 15.31567383 C41.09795852 15.31252299 44.80253059 15.33602688 48.5078125 15.36132812 C78.51003441 16.05479776 78.51003441 16.05479776 107 8 C109.31016682 5.48380783 109.31016682 5.48380783 111 3 C111.33 4.32 111.66 5.64 112 7 C105.36098054 13.41008776 96.03758158 15.12661731 87.3125 17.125 C86.6316333 17.28355469 85.9507666 17.44210938 85.24926758 17.60546875 C69.58314214 21.01480728 54.02892861 21.40070575 38.0625 21.375 C36.96981812 21.37545319 35.87713623 21.37590637 34.75134277 21.37637329 C20.66331188 21.3592643 6.73621513 20.93906337 -7.25 19.1875 C-7.92650604 19.10481873 -8.60301208 19.02213745 -9.30001831 18.93695068 C-15.77611525 18.11825447 -21.28952789 17.33596989 -27 14 C-27.875 11.8125 -27.875 11.8125 -28 10 C-19.79718309 3.64122721 -10.52280566 -0.41018433 0 0 Z " fill="#0F78BF" transform="translate(156,224)"/>
<path d="M0 0 C-0.58265625 0.32871094 -1.1653125 0.65742187 -1.765625 0.99609375 C-18.24592516 10.47515984 -18.24592516 10.47515984 -30 25 C-30.83253329 32.90906629 -28.07201138 37.6825786 -23.5546875 44.03125 C-20.6359744 48.23419686 -19.13470766 51.5013865 -19.44921875 56.6953125 C-20.82430124 62.44920377 -24.50923613 67.27231681 -29.375 70.5625 C-30.24125 71.036875 -31.1075 71.51125 -32 72 C-31.67 71.154375 -31.34 70.30875 -31 69.4375 C-29.76100011 65.17843786 -28.99955593 61.40828547 -30.7578125 57.17578125 C-32.2801253 54.41284345 -33.9331409 52.07730584 -36 49.6875 C-40.2705699 43.94892169 -42.95043358 37.19613998 -42 30 C-38.41589447 18.40436447 -28.43722411 11.54753072 -18.3515625 5.75390625 C-3.761959 -1.8809795 -3.761959 -1.8809795 0 0 Z " fill="#E92F30" transform="translate(245,96)"/>
<path d="M0 0 C0.66 0.99 1.32 1.98 2 3 C12.94662162 5.67934325 24.92690211 5.78614685 36.04296875 4.40625 C36.9244458 4.30022461 37.80592285 4.19419922 38.71411133 4.08496094 C40.44495506 3.86707695 42.17316489 3.6266943 43.8972168 3.36035156 C50.19576845 2.55072694 53.56082038 3.72398837 59 7 C59 7.66 59 8.32 59 9 C38.68517724 15.03004825 16.79404467 19.33280171 -3.20703125 9.51171875 C-5.55410339 7.53281479 -5.69462547 5.98866548 -6 3 C-2.25 0 -2.25 0 0 0 Z " fill="#0875BE" transform="translate(173,211)"/>
<path d="M0 0 C0.33 1.32 0.66 2.64 1 4 C5.88024418 5.57235831 9.98738047 6.2559914 15.1640625 6.265625 C15.83043228 6.26808228 16.49680206 6.27053955 17.18336487 6.27307129 C19.33074698 6.27643751 21.47766522 6.26376401 23.625 6.25 C24.72299423 6.24933533 24.72299423 6.24933533 25.84317017 6.24865723 C35.86777066 6.24153077 45.7531096 5.9121241 55.68017578 4.36035156 C59.69993241 3.812552 62.08544541 3.6650954 65.55078125 5.953125 C66.76314453 6.96632812 66.76314453 6.96632812 68 8 C56.8593742 15.42708387 39.40235235 14.40536527 26.4375 14.4375 C25.76635162 14.44340149 25.09520325 14.44930298 24.40371704 14.4553833 C13.83071636 14.51842077 1.93045298 14.37860839 -7 8 C-7.625 5.5 -7.625 5.5 -7 3 C-4.6167054 1.18116991 -3.04181663 0 0 0 Z " fill="#0D77BE" transform="translate(168,189)"/>
<path d="M0 0 C-0.85464844 0.32613281 -1.70929688 0.65226563 -2.58984375 0.98828125 C-4.24693359 1.64376953 -4.24693359 1.64376953 -5.9375 2.3125 C-7.03964844 2.74175781 -8.14179688 3.17101562 -9.27734375 3.61328125 C-12.30860265 4.75608861 -12.30860265 4.75608861 -13 8 C-7.72176088 9.74135963 -3.1255968 10.3066451 2.4140625 10.30078125 C3.21424805 10.30615402 4.01443359 10.31152679 4.83886719 10.31706238 C7.43440738 10.32840816 10.02945781 10.3220488 12.625 10.3125 C13.5098407 10.31233887 14.3946814 10.31217773 15.30633545 10.31201172 C30.46032813 10.29284894 45.27008225 9.30777725 60.29150391 7.27539062 C63.21105761 6.97854038 66.06739317 6.95469211 69 7 C63.65004326 13.73906832 48.78611139 13.65122631 40.6940918 14.58325195 C32.63550568 15.38614805 24.53650233 15.33385669 16.44580078 15.31567383 C13.50385753 15.31250416 10.56291443 15.33610692 7.62109375 15.36132812 C-19.82019655 15.4532023 -19.82019655 15.4532023 -28 10 C-27 7 -27 7 -24.91796875 5.71875 C-6.82677862 -2.35628766 -6.82677862 -2.35628766 0 0 Z " fill="#0874BC" transform="translate(172,166)"/>
<path d="M0 0 C0.99 0.495 0.99 0.495 2 1 C-5.79537379 8.01583641 -13.73239292 11.0432634 -24 13 C-24.71929687 13.13825195 -25.43859375 13.27650391 -26.1796875 13.41894531 C-40.78416581 16.07049609 -55.39030409 16.31833507 -70.1875 16.375 C-71.10877686 16.38276459 -72.03005371 16.39052917 -72.97924805 16.39852905 C-83.31985627 16.46715225 -93.42593496 16.03732787 -103.67578125 14.6015625 C-104.56798874 14.47695648 -105.46019623 14.35235046 -106.37944031 14.22396851 C-110.32559435 13.61549724 -112.60757683 13.26161545 -116 11 C-114.9028064 11.10284302 -114.9028064 11.10284302 -113.78344727 11.20776367 C-101.84505171 12.20048219 -89.91118862 12.28440083 -77.9375 12.3125 C-76.831716 12.31545074 -75.72593201 12.31840149 -74.5866394 12.32144165 C-51.47624853 12.33545492 -26.88341919 11.95920443 -5.4375 2.25 C-3.65042531 1.44128479 -1.84206131 0.67414122 0 0 Z " fill="#3187C3" transform="translate(274,239)"/>
<path d="M0 0 C10 0 10 0 13.0625 1.875 C16.47509989 5.61785149 16.32843064 8.60769925 16.29296875 13.515625 C15.88537873 16.97198834 14.53723498 18.68663869 12 21 C10 22 10 22 0 22 C0 14.74 0 7.48 0 0 Z " fill="#FEF8F8" transform="translate(398,142)"/>
<path d="M0 0 C0.99 0.495 0.99 0.495 2 1 C1.62477562 3.46547956 1.3369201 4.69631388 -0.54443359 6.39208984 C-5.44158036 9.34632716 -10.07596947 11.26737196 -15.625 12.625 C-16.44129883 12.82955811 -17.25759766 13.03411621 -18.09863281 13.24487305 C-32.16093456 16.61413244 -46.23265479 18.24311492 -60.6875 18.3125 C-62.16718262 18.32083862 -62.16718262 18.32083862 -63.67675781 18.3293457 C-70.61317958 18.25788028 -70.61317958 18.25788028 -74 16 C-73.67 15.67 -73.34 15.34 -73 15 C-77.29 14.67 -81.58 14.34 -86 14 C-86 13.67 -86 13.34 -86 13 C-84.73220703 12.98541748 -83.46441406 12.97083496 -82.15820312 12.95581055 C-41.53174377 14.75870836 -41.53174377 14.75870836 -3 5 C-1.16237147 2.48320405 -1.16237147 2.48320405 0 0 Z " fill="#0F76BB" transform="translate(266,227)"/>
<path d="M0 0 C6.26994969 0.11999904 9.94642983 1.13344714 14.5625 5.5 C16.70604732 9.07257887 17.54766404 12.19099784 17.25 16.3125 C15.43017358 22.98095487 10.88421059 27.57031258 5.25 31.3125 C0.41790256 33.99379668 -4.57037114 36.38755235 -9.75 38.3125 C-10.41 37.9825 -11.07 37.6525 -11.75 37.3125 C-10.96496094 36.83941406 -10.17992187 36.36632812 -9.37109375 35.87890625 C-1.88056355 31.1640081 4.22701543 26.35846914 8.25 18.3125 C8.80512815 13.68036507 8.8864242 10.33077873 6.375 6.3125 C3.28113897 3.40063079 1.27272172 3.12223144 -2.875 2.75 C-3.78507813 2.66621094 -4.69515625 2.58242187 -5.6328125 2.49609375 C-6.33148438 2.43550781 -7.03015625 2.37492188 -7.75 2.3125 C-5.0881996 -0.3493004 -3.70750737 0.01383398 0 0 Z " fill="#0D77BD" transform="translate(259.75,162.6875)"/>
<path d="M0 0 C0.66 0.33 1.32 0.66 2 1 C-10.9874645 12.68871805 -27.95154247 14.17346219 -44.76171875 15.23828125 C-48.34031713 14.97495857 -49.3184895 14.21535086 -52 12 C-51.17910889 11.89453857 -50.35821777 11.78907715 -49.51245117 11.68041992 C-46.41216462 11.27834912 -43.31289309 10.86930694 -40.21411133 10.45581055 C-38.23522414 10.19381837 -36.25531449 9.93958603 -34.27539062 9.68554688 C-24.18602421 8.33178379 -14.75019487 6.4661335 -5.4375 2.25 C-3.65042531 1.44128479 -1.84206131 0.67414122 0 0 Z " fill="#1E7EBF" transform="translate(274,239)"/>
<path d="M0 0 C12.36592489 -0.1574163 24.65415863 0.32292352 37 1 C37 1.33 37 1.66 37 2 C34.36 2.33 31.72 2.66 29 3 C29.66 3.66 30.32 4.32 31 5 C22.09 5 13.18 5 4 5 C4 4.34 4 3.68 4 3 C3.01 3 2.02 3 1 3 C0.67 2.01 0.34 1.02 0 0 Z " fill="#0271BA" transform="translate(164,240)"/>
<path d="M0 0 C12.87 0 25.74 0 39 0 C39 0.33 39 0.66 39 1 C37.35 1 35.7 1 34 1 C34 1.66 34 2.32 34 3 C38.62 3 43.24 3 48 3 C48 3.33 48 3.66 48 4 C40.67314408 4.87930366 33.43894601 5.18274407 26.0625 5.1875 C24.52239258 5.20586914 24.52239258 5.20586914 22.95117188 5.22460938 C21.47680664 5.22750977 21.47680664 5.22750977 19.97265625 5.23046875 C18.64633179 5.23663208 18.64633179 5.23663208 17.29321289 5.24291992 C15 5 15 5 12 3 C12.33 2.67 12.66 2.34 13 2 C8.71 1.67 4.42 1.34 0 1 C0 0.67 0 0.34 0 0 Z " fill="#3089C6" transform="translate(180,240)"/>
<path d="M0 0 C0.66 0.99 1.32 1.98 2 3 C4.59270699 3.54475978 7.00451945 3.92400149 9.625 4.1875 C10.33140625 4.26935547 11.0378125 4.35121094 11.765625 4.43554688 C13.5090683 4.63580725 15.25440086 4.81949401 17 5 C17 5.33 17 5.66 17 6 C14.36 6 11.72 6 9 6 C9 7.32 9 8.64 9 10 C9 10.99 9 11.98 9 13 C2.83543922 12.61471495 -0.98627748 10.52913975 -6 7 C-5.6875 4.625 -5.6875 4.625 -5 2 C-2 0 -2 0 0 0 Z " fill="#157ABD" transform="translate(173,211)"/>
<path d="M0 0 C0.53625 0.639375 1.0725 1.27875 1.625 1.9375 C-6.3848625 4.19559954 -14.0625679 5.51008771 -22.375 5.9375 C-21.055 4.9475 -19.735 3.9575 -18.375 2.9375 C-18.705 1.9475 -19.035 0.9575 -19.375 -0.0625 C-21.355 -0.0625 -23.335 -0.0625 -25.375 -0.0625 C-25.375 -0.3925 -25.375 -0.7225 -25.375 -1.0625 C-22.66772088 -1.42728928 -19.95976283 -1.77959438 -17.25 -2.125 C-16.48945313 -2.22876953 -15.72890625 -2.33253906 -14.9453125 -2.43945312 C-4.33614445 -3.76559913 -4.33614445 -3.76559913 0 0 Z " fill="#0F77BB" transform="translate(234.375,196.0625)"/>
<path d="M0 0 C-0.58265625 0.32871094 -1.1653125 0.65742187 -1.765625 0.99609375 C-8.92590947 5.15040974 -15.44645495 9.95511561 -22 15 C-23.33173886 16.00212243 -24.66439136 17.00304095 -26 18 C-26.12375 17.195625 -26.2475 16.39125 -26.375 15.5625 C-26.684375 14.2940625 -26.684375 14.2940625 -27 13 C-27.66 12.67 -28.32 12.34 -29 12 C-5.00067889 -2.50033944 -5.00067889 -2.50033944 0 0 Z " fill="#E93639" transform="translate(245,96)"/>
<path d="M0 0 C2.97 0 5.94 0 9 0 C8.34 0.66 7.68 1.32 7 2 C3.375 1.625 3.375 1.625 0 1 C0 0.67 0 0.34 0 0 Z M5 2 C6.65 2.66 8.3 3.32 10 4 C10 4.99 10 5.98 10 7 C11.32 7.33 12.64 7.66 14 8 C5.32910197 10.33447255 -3.10456358 10.19865739 -12 10 C-12 9.67 -12 9.34 -12 9 C-8.7 8.67 -5.4 8.34 -2 8 C-2 7.34 -2 6.68 -2 6 C-0.35 6 1.3 6 3 6 C3 5.34 3 4.68 3 4 C3.66 3.34 4.32 2.68 5 2 Z " fill="#1D7FBF" transform="translate(204,216)"/>
<path d="M0 0 C-0.78503906 0.32613281 -1.57007813 0.65226563 -2.37890625 0.98828125 C-3.42949219 1.42527344 -4.48007813 1.86226562 -5.5625 2.3125 C-6.65820312 2.76753906 -7.75390625 3.22257813 -8.8828125 3.69140625 C-11.24848603 4.68451481 -13.59530315 5.70381874 -15.9375 6.75 C-19 8 -19 8 -21.875 8.5625 C-22.926875 8.7790625 -22.926875 8.7790625 -24 9 C-24.33 9.66 -24.66 10.32 -25 11 C-25.99 10.67 -26.98 10.34 -28 10 C-27 7 -27 7 -24.91796875 5.71875 C-6.82677862 -2.35628766 -6.82677862 -2.35628766 0 0 Z " fill="#1E7FC0" transform="translate(172,166)"/>
<path d="M0 0 C3.04808674 3.94020969 5.63912987 8.12562838 8.28125 12.34375 C9.77003086 14.64459315 11.32406235 16.83354401 13 19 C12.67 19.66 12.34 20.32 12 21 C10.2925002 19.71937515 8.62626404 18.38232443 7 17 C7 16.34 7 15.68 7 15 C6.34 15 5.68 15 5 15 C3.2734375 13.390625 3.2734375 13.390625 1.375 11.25 C0.74335938 10.55390625 0.11171875 9.8578125 -0.5390625 9.140625 C-2 7 -2 7 -2 3 C-1.34 2.01 -0.68 1.02 0 0 Z " fill="#EA3539" transform="translate(187,139)"/>
<path d="M0 0 C1.04542969 0.00515625 2.09085937 0.0103125 3.16796875 0.015625 C4.72451172 0.00789062 4.72451172 0.00789062 6.3125 0 C9.37474505 0.26730765 11.58412967 0.97472399 14.35546875 2.265625 C14.02546875 3.585625 13.69546875 4.905625 13.35546875 6.265625 C14.01546875 6.595625 14.67546875 6.925625 15.35546875 7.265625 C14.69546875 10.235625 14.03546875 13.205625 13.35546875 16.265625 C13.02546875 16.265625 12.69546875 16.265625 12.35546875 16.265625 C12.26910156 15.66234375 12.18273437 15.0590625 12.09375 14.4375 C11.41149611 10.55678977 10.8484924 7.88190456 8.35546875 4.765625 C4.12255088 2.64916606 0.03749519 2.44745127 -4.64453125 2.265625 C-2.64453125 0.265625 -2.64453125 0.265625 0 0 Z " fill="#1077BD" transform="translate(256.64453125,162.734375)"/>
<path d="M0 0 C0.66 0.99 1.32 1.98 2 3 C2.66 3.66 3.32 4.32 4 5 C-8.94594595 13.10810811 -8.94594595 13.10810811 -15 15 C-15.66 14.67 -16.32 14.34 -17 14 C-15.78763672 13.23816406 -15.78763672 13.23816406 -14.55078125 12.4609375 C-8.84457985 8.78529028 -3.91447068 5.59210098 0 0 Z " fill="#167ABC" transform="translate(265,186)"/>
<path d="M0 0 C2.31459868 1.81817001 2.95377187 2.75615543 3.51171875 5.69921875 C3.59873047 7.17841797 3.59873047 7.17841797 3.6875 8.6875 C3.75324219 9.68136719 3.81898438 10.67523438 3.88671875 11.69921875 C3.92410156 12.45847656 3.96148437 13.21773437 4 14 C3.01 14 2.02 14 1 14 C0.34 17.3 -0.32 20.6 -1 24 C-1.33 23.01 -1.66 22.02 -2 21 C-2.66 20.67 -3.32 20.34 -4 20 C-3.525625 18.9275 -3.05125 17.855 -2.5625 16.75 C-0.48909857 11.31221133 -0.27867008 5.76558787 0 0 Z " fill="#E8383B" transform="translate(224,56)"/>
<path d="M0 0 C-1 2 -1 2 -3.94140625 3.0703125 C-5.13636719 3.41835937 -6.33132812 3.76640625 -7.5625 4.125 C-8.76003906 4.47820312 -9.95757812 4.83140625 -11.19140625 5.1953125 C-12.58166016 5.59363281 -12.58166016 5.59363281 -14 6 C-14.33 7.65 -14.66 9.3 -15 11 C-15.66 11 -16.32 11 -17 11 C-17.33 10.01 -17.66 9.02 -18 8 C-19.65 7.67 -21.3 7.34 -23 7 C-19.76232231 4.24402557 -16.67613399 3.04483796 -12.625 1.8125 C-10.97371094 1.29623047 -10.97371094 1.29623047 -9.2890625 0.76953125 C-6.06242563 0.01460552 -3.29901173 -0.14451864 0 0 Z " fill="#1E7CBF" transform="translate(156,224)"/>
<path d="M0 0 C7.26 0 14.52 0 22 0 C22 0.33 22 0.66 22 1 C19.36 1.33 16.72 1.66 14 2 C14.66 2.66 15.32 3.32 16 4 C9.86946489 4.32712342 5.37330889 4.39366878 0 1 C0 0.67 0 0.34 0 0 Z " fill="#026FBB" transform="translate(179,241)"/>
<path d="M0 0 C0.74958984 0.00451172 1.49917969 0.00902344 2.27148438 0.01367188 C4.11852383 0.02543646 5.96552213 0.04337135 7.8125 0.0625 C7.8125 1.0525 7.8125 2.0425 7.8125 3.0625 C1.8725 3.0625 -4.0675 3.0625 -10.1875 3.0625 C-10.5175 2.4025 -10.8475 1.7425 -11.1875 1.0625 C-7.42449626 -0.19183458 -3.91539091 -0.04445422 0 0 Z " fill="#0273BD" transform="translate(182.1875,177.9375)"/>
<path d="M0 0 C0.99 0 1.98 0 3 0 C3 1.65 3 3.3 3 5 C4.65 5.33 6.3 5.66 8 6 C8 6.66 8 7.32 8 8 C5.25 8.6875 5.25 8.6875 2 9 C-0.375 7.5625 -0.375 7.5625 -2 6 C-1.125 1.125 -1.125 1.125 0 0 Z " fill="#0875BD" transform="translate(169,212)"/>
<path d="M0 0 C1.32 0 2.64 0 4 0 C4 0.66 4 1.32 4 2 C4.99 2 5.98 2 7 2 C7.66 3.65 8.32 5.3 9 7 C6.36 7 3.72 7 1 7 C1 6.01 1 5.02 1 4 C0.01 3.67 -0.98 3.34 -2 3 C-1.34 2.01 -0.68 1.02 0 0 Z " fill="#0373BD" transform="translate(213,216)"/>
<path d="M0 0 C-2.51653296 3.11570748 -4.73881929 3.61426595 -8.625 4.25 C-10.09839844 4.50523437 -10.09839844 4.50523437 -11.6015625 4.765625 C-12.39304688 4.84296875 -13.18453125 4.9203125 -14 5 C-14.33 4.67 -14.66 4.34 -15 4 C-16.34747084 3.76924918 -17.70377565 3.58846937 -19.0625 3.4375 C-20.361875 3.293125 -21.66125 3.14875 -23 3 C-23 2.67 -23 2.34 -23 2 C-20.29215006 1.66227261 -17.58383004 1.32969313 -14.875 1 C-14.11445313 0.90460938 -13.35390625 0.80921875 -12.5703125 0.7109375 C-8.35090048 0.20169812 -4.25995656 -0.10888068 0 0 Z " fill="#2581BF" transform="translate(241,173)"/>
<path d="M0 0 C-6.19439262 3.09719631 -15.20894463 2.11132878 -22 2 C-22 1.67 -22 1.34 -22 1 C-20.02 1 -18.04 1 -16 1 C-16 0.34 -16 -0.32 -16 -1 C-10.50236935 -2.33275895 -4.96478604 -3.17746307 0 0 Z " fill="#0371BA" transform="translate(230,242)"/>
<path d="M0 0 C8.25 0 16.5 0 25 0 C25 0.33 25 0.66 25 1 C24.40461426 1.01981934 23.80922852 1.03963867 23.19580078 1.06005859 C20.50507847 1.15516126 17.81514852 1.26489842 15.125 1.375 C14.18785156 1.4059375 13.25070313 1.436875 12.28515625 1.46875 C11.38925781 1.50742188 10.49335938 1.54609375 9.5703125 1.5859375 C8.32918701 1.63306885 8.32918701 1.63306885 7.06298828 1.68115234 C4.78013915 1.82599137 4.78013915 1.82599137 3 4 C0.8359375 4.1953125 0.8359375 4.1953125 -1.625 4.125 C-2.44226563 4.10695312 -3.25953125 4.08890625 -4.1015625 4.0703125 C-4.72804687 4.04710937 -5.35453125 4.02390625 -6 4 C-5.67 3.34 -5.34 2.68 -5 2 C-3.35 2 -1.7 2 0 2 C0 1.34 0 0.68 0 0 Z " fill="#1C7EC0" transform="translate(169,177)"/>
<path d="M0 0 C6.6 0 13.2 0 20 0 C20.33 0.66 20.66 1.32 21 2 C16.71 2.66 12.42 3.32 8 4 C7.67 3.34 7.34 2.68 7 2 C4.67843403 1.59270772 2.3431213 1.25561323 0 1 C0 0.67 0 0.34 0 0 Z " fill="#197BC0" transform="translate(206,176)"/>
<path d="M0 0 C-2.80627778 4.74908547 -5.25091453 7.19372222 -10 10 C-9.55123384 8.35153231 -9.09069512 6.70626545 -8.625 5.0625 C-8.36976563 4.14597656 -8.11453125 3.22945312 -7.8515625 2.28515625 C-6.25650832 -1.99514968 -3.84965283 -0.91175988 0 0 Z " fill="#EA3C40" transform="translate(223,158)"/>
<path d="M0 0 C0.66 0.33 1.32 0.66 2 1 C1.62754156 3.56886775 1.32153763 4.72128397 -0.671875 6.44921875 C-7.62002808 10.58937763 -7.62002808 10.58937763 -12 11 C-11 8 -11 8 -9.00390625 6.97265625 C-7.37944022 6.36705532 -5.75444102 5.76288262 -4.12890625 5.16015625 C-1.60564508 3.78509466 -1.00882521 2.6405862 0 0 Z " fill="#2E84C0" transform="translate(266,227)"/>
<path d="M0 0 C0.66 0.33 1.32 0.66 2 1 C1.67 2.32 1.34 3.64 1 5 C1.66 5 2.32 5 3 5 C3 5.66 3 6.32 3 7 C2.2575 6.979375 1.515 6.95875 0.75 6.9375 C-1.70462279 6.99328688 -3.66109261 7.3069904 -6 8 C-4.55746343 4.63408134 -2.66735273 2.48952921 0 0 Z " fill="#E72B2C" transform="translate(215,84)"/>
<path d="M0 0 C0.80824219 0.10183594 1.61648437 0.20367187 2.44921875 0.30859375 C3.06410156 0.39238281 3.67898437 0.47617188 4.3125 0.5625 C4.3125 0.8925 4.3125 1.2225 4.3125 1.5625 C2.0025 2.2225 -0.3075 2.8825 -2.6875 3.5625 C-2.3575 4.2225 -2.0275 4.8825 -1.6875 5.5625 C-5.3175 5.2325 -8.9475 4.9025 -12.6875 4.5625 C-12.6875 4.2325 -12.6875 3.9025 -12.6875 3.5625 C-10.7075 3.2325 -8.7275 2.9025 -6.6875 2.5625 C-7.0175 1.9025 -7.3475 1.2425 -7.6875 0.5625 C-4.59271121 -0.46909626 -3.16118607 -0.41232862 0 0 Z " fill="#2482C3" transform="translate(153.6875,237.4375)"/>
<path d="M0 0 C0.33 0.66 0.66 1.32 1 2 C3.34907875 2.68931344 3.34907875 2.68931344 6.0625 3.125 C6.98160156 3.29257813 7.90070313 3.46015625 8.84765625 3.6328125 C9.91306641 3.81457031 9.91306641 3.81457031 11 4 C11 4.99 11 5.98 11 7 C3.11735941 6.24205379 3.11735941 6.24205379 0 3 C0 2.01 0 1.02 0 0 Z " fill="#187BBF" transform="translate(128,234)"/>
<path d="M0 0 C1.64666203 0.1135629 3.29236082 0.24117381 4.9375 0.375 C5.85402344 0.44460937 6.77054688 0.51421875 7.71484375 0.5859375 C8.84599609 0.79089844 8.84599609 0.79089844 10 1 C10.33 1.66 10.66 2.32 11 3 C10.67 3.66 10.34 4.32 10 5 C8.51800098 4.55090939 7.03944764 4.09043436 5.5625 3.625 C4.73878906 3.36976563 3.91507813 3.11453125 3.06640625 2.8515625 C1 2 1 2 0 0 Z M11 1 C13 2 13 2 13 2 Z " fill="#1C7EC0" transform="translate(161,196)"/>
<path d="M0 0 C1.09054687 0.02320313 2.18109375 0.04640625 3.3046875 0.0703125 C4.40039062 0.08835938 5.49609375 0.10640625 6.625 0.125 C7.46804688 0.14820313 8.31109375 0.17140625 9.1796875 0.1953125 C9.1796875 1.1853125 9.1796875 2.1753125 9.1796875 3.1953125 C2.2496875 2.7003125 2.2496875 2.7003125 -4.8203125 2.1953125 C-2.8203125 0.1953125 -2.8203125 0.1953125 0 0 Z " fill="#2D84C1" transform="translate(256.8203125,162.8046875)"/>
<path d="M0 0 C0.99 0 1.98 0 3 0 C3.75 2.75 3.75 2.75 4 6 C2.0625 8.375 2.0625 8.375 0 10 C-0.38218767 8.34385343 -0.71395102 6.67542976 -1 5 C-0.67 4.67 -0.34 4.34 0 4 C-0.66 3.34 -1.32 2.68 -2 2 C-1.34 1.34 -0.68 0.68 0 0 Z " fill="#EB3236" transform="translate(215,109)"/>
<path d="M0 0 C-1.59910868 1.00806851 -3.20448262 2.00620385 -4.8125 3 C-6.15248047 3.8353125 -6.15248047 3.8353125 -7.51953125 4.6875 C-10 6 -10 6 -13 6 C-13.66 5.34 -14.32 4.68 -15 4 C-12.87875034 3.13656176 -10.75286928 2.28449352 -8.625 1.4375 C-6.84996094 0.72400391 -6.84996094 0.72400391 -5.0390625 -0.00390625 C-2 -1 -2 -1 0 0 Z " fill="#EA5054" transform="translate(245,96)"/>
<path d="M0 0 C4.69023454 0.56606279 9.34500026 1.18537505 14 2 C14 2.33 14 2.66 14 3 C8.06 3.495 8.06 3.495 2 4 C1.34 2.68 0.68 1.36 0 0 Z " fill="#1B7CC1" transform="translate(226,239)"/>
<path d="M0 0 C2.64 0 5.28 0 8 0 C6 3 6 3 3.625 3.625 C2.75875 3.74875 1.8925 3.8725 1 4 C-0.33542939 4.32483418 -1.66961551 4.6550855 -3 5 C-2.67 4.01 -2.34 3.02 -2 2 C-1.34 2 -0.68 2 0 2 C0 1.34 0 0.68 0 0 Z " fill="#0371B9" transform="translate(174,196)"/>
<path d="M0 0 C3.625 -0.1875 3.625 -0.1875 7 0 C6.67 1.32 6.34 2.64 6 4 C3.36 3.67 0.72 3.34 -2 3 C-1.34 2.01 -0.68 1.02 0 0 Z " fill="#E92C2F" transform="translate(205,93)"/>
<path d="M0 0 C0 0.66 0 1.32 0 2 C0.99 2 1.98 2 3 2 C3 2.66 3 3.32 3 4 C-0.375 4.1875 -0.375 4.1875 -4 4 C-4.66 3.01 -5.32 2.02 -6 1 C-4 0 -4 0 0 0 Z " fill="#0673BC" transform="translate(156,239)"/>
<path d="M0 0 C0 1.65 0 3.3 0 5 C-5.75 5.125 -5.75 5.125 -8 4 C-8 3.34 -8 2.68 -8 2 C-1.125 0 -1.125 0 0 0 Z " fill="#0373BB" transform="translate(137,232)"/>
<path d="M0 0 C1.32 0.66 2.64 1.32 4 2 C2.21289414 2.86366822 0.4201535 3.71568594 -1.375 4.5625 C-2.37273437 5.03816406 -3.37046875 5.51382813 -4.3984375 6.00390625 C-5.25695312 6.33261719 -6.11546875 6.66132813 -7 7 C-7.66 6.67 -8.32 6.34 -9 6 C-6.03 4.02 -3.06 2.04 0 0 Z " fill="#2B83C1" transform="translate(257,194)"/>
<path d="M0 0 C1.52519276 0.08937803 3.04681929 0.24537146 4.5625 0.4375 C5.80193359 0.59025391 5.80193359 0.59025391 7.06640625 0.74609375 C7.70449219 0.82988281 8.34257812 0.91367188 9 1 C9 1.99 9 2.98 9 4 C8.01 4.66 7.02 5.32 6 6 C5.67 5.01 5.34 4.02 5 3 C4.01 3.33 3.02 3.66 2 4 C2 3.34 2 2.68 2 2 C1.01 1.67 0.02 1.34 -1 1 C-0.67 0.67 -0.34 0.34 0 0 Z " fill="#EA3E41" transform="translate(202,95)"/>
<path d="M0 0 C0.33 0.66 0.66 1.32 1 2 C1.66 2.33 2.32 2.66 3 3 C3 4.65 3 6.3 3 8 C1.35 8 -0.3 8 -2 8 C-1.33333333 5.33333333 -0.66666667 2.66666667 0 0 Z " fill="#0172BE" transform="translate(271,176)"/>
<path d="M0 0 C2.475 0.99 2.475 0.99 5 2 C5 2.33 5 2.66 5 3 C-0.61 3 -6.22 3 -12 3 C-12 2.67 -12 2.34 -12 2 C-11.21753906 1.93941406 -10.43507812 1.87882813 -9.62890625 1.81640625 C-8.61699219 1.73261719 -7.60507813 1.64882812 -6.5625 1.5625 C-5.55316406 1.48128906 -4.54382813 1.40007812 -3.50390625 1.31640625 C-1.06359221 1.26788532 -1.06359221 1.26788532 0 0 Z " fill="#2F86C4" transform="translate(180,242)"/>
<path d="M0 0 C4.29 0 8.58 0 13 0 C11.35 1.32 9.7 2.64 8 4 C7.34 3.67 6.68 3.34 6 3 C6 2.34 6 1.68 6 1 C4.02 1 2.04 1 0 1 C0 0.67 0 0.34 0 0 Z " fill="#2483C3" transform="translate(209,195)"/>
<path d="M0 0 C2.97 0 5.94 0 9 0 C9 0.99 9 1.98 9 3 C7.02 3 5.04 3 3 3 C3 2.34 3 1.68 3 1 C2.01 0.67 1.02 0.34 0 0 Z " fill="#1077C0" transform="translate(171,240)"/>
<path d="M0 0 C0.66 0 1.32 0 2 0 C2.66 0.99 3.32 1.98 4 3 C6.56282742 3.72965366 6.56282742 3.72965366 9 4 C9 4.33 9 4.66 9 5 C6.36 5.33 3.72 5.66 1 6 C0.67 4.02 0.34 2.04 0 0 Z " fill="#1E7DC2" transform="translate(171,211)"/>
<path d="M0 0 C0.66 1.32 1.32 2.64 2 4 C1.01 4.33 0.02 4.66 -1 5 C-2.20882096 7.00016466 -2.20882096 7.00016466 -3 9 C-2.5020163 5.26512223 -2.12508244 3.18762365 0 0 Z " fill="#E64040" transform="translate(179,117)"/>
<path d="M0 0 C1.67542976 0.28604898 3.34385343 0.61781233 5 1 C3.35 2.65 1.7 4.3 0 6 C-0.38218767 4.34385343 -0.71395102 2.67542976 -1 1 C-0.67 0.67 -0.34 0.34 0 0 Z " fill="#EA3A3C" transform="translate(193,108)"/>
<path d="M0 0 C-0.33 0.66 -0.66 1.32 -1 2 C-4.4375 2.75 -4.4375 2.75 -8 3 C-8.66 2.34 -9.32 1.68 -10 1 C-6.61981469 -0.04005702 -3.5219721 -0.08004482 0 0 Z " fill="#67A4CF" transform="translate(156,224)"/>
<path d="M0 0 C3.08089673 2.77280706 4.68775452 5.06326356 6 9 C3 7.3125 3 7.3125 0 5 C-0.375 2.25 -0.375 2.25 0 0 Z " fill="#E94248" transform="translate(194,151)"/>
<path d="M0 0 C0.99 0.99 1.98 1.98 3 3 C2.34 5.31 1.68 7.62 1 10 C0.67 10 0.34 10 0 10 C0 6.7 0 3.4 0 0 Z " fill="#EA4248" transform="translate(224,56)"/>
<path d="M0 0 C-3 2 -3 2 -6.1875 1.625 C-7.115625 1.41875 -8.04375 1.2125 -9 1 C-5.64919071 -1.10976881 -3.77897651 -1.0497157 0 0 Z " fill="#177BC0" transform="translate(236,197)"/>
<path d="M0 0 C1.4540625 0.0309375 1.4540625 0.0309375 2.9375 0.0625 C3.2675 0.7225 3.5975 1.3825 3.9375 2.0625 C1.0625 2.6875 1.0625 2.6875 -2.0625 3.0625 C-2.7225 2.4025 -3.3825 1.7425 -4.0625 1.0625 C-3.0625 0.0625 -3.0625 0.0625 0 0 Z " fill="#0872BD" transform="translate(223.0625,175.9375)"/>
</svg>
